<?xml version="1.0" encoding="utf-8"?>
<!-- Generator: Adobe Illustrator 25.2.1, SVG Export Plug-In . SVG Version: 6.00 Build 0)  -->
<svg version="1.1" id="Layer_1" xmlns="http://www.w3.org/2000/svg" xmlns:xlink="http://www.w3.org/1999/xlink" x="0px" y="0px"
	 viewBox="0 0 800 100" style="enable-background:new 0 0 800 100;" xml:space="preserve">
<style type="text/css">
	.st0{fill:#F7C0CA;}
	.st1{fill:#030304;}
</style>
<g>
	<g>
		<path class="st0" d="M381.92,96.35c-0.76,0-2.13-0.23-2.83-1.75c-18.13-39.56-104.25-81.4-167.55-81.4
			c-19.62,0-35.08,4.04-45.97,12.02l-1.64,1.2l2.01,0.24c44.7,5.29,79.17,16.63,105.37,34.67c8.42,9.34,11.46,16.81,9.06,22.22
			c-2.64,5.94-12.14,9.34-26.08,9.34c-10.69,0-22.51-2.13-30.1-5.43c-24.02-9.29-68.6-26.53-69.96-54.93l-0.03-0.71l-0.7-0.05
			c-6.22-0.47-13.58-0.94-20.97-0.94c-12.77,0-23.04,1.44-31.43,4.41c-10.04,4.31-15.24,9.25-15.49,14.71
			c-0.43,9.28,13.08,17.85,24.91,24.29l0.29,0.16l0.31-0.09c9.66-2.76,18.43-4.16,26.07-4.16c7.56,0,13.86,1.39,18.22,4.02
			c3.6,2.17,5.66,5.15,5.66,8.15c0,4.74-5.25,9.85-16.78,9.85c-6.83,0-18.42-1.89-34.92-10.91l-0.28-0.15l-0.31,0.08
			c-6.22,1.67-14.5,2.55-23.95,2.55c-30.31,0-68.04-8.97-79.23-28.67c-5.19-9.12-4.21-19.81,2.9-31.74c0.81-1.18,2-1.43,2.85-1.43
			c1.64,0,3.33,0.93,4.01,2.22c0.46,0.87,0.39,1.77-0.22,2.65c-5.45,9.41-6,17.97-1.67,25.47c10.85,18.8,48.7,25.62,71.5,25.62
			c5,0,9.63-0.32,13.36-0.93l2.44-0.4l-2.21-1.11C85.12,68.7,77.5,59.02,78.16,49.54c0.62-8.84,8.25-16.15,21.47-20.59
			c9.27-2.92,20.28-4.35,33.65-4.35c6.54,0,13.58,0.33,22.15,1.04l0.41,0.03l0.27-0.31c10.88-12.7,28.08-19.14,51.13-19.14
			c32.56,0,69.22,12.44,93.97,21.8c29.23,11.77,69.83,31.17,84.75,63.63c0.43,0.93,0.37,1.84-0.17,2.68
			C385.03,95.52,383.44,96.35,381.92,96.35L381.92,96.35z M162.17,33.49c1.17,16.39,23.25,29.86,36.3,36.44
			c18.04,9.08,39.88,15.78,53.11,16.27c2.17,0.25,4.27,0.37,6.18,0.37c11.4,0,14.19-4.41,14.84-7.05
			c1.52-6.16-5.03-14.46-15.92-20.18c-29.88-14.43-60.5-23.17-93.64-26.71l-0.95-0.1L162.17,33.49z M135.59,76.14
			c-5.35,0.1-10.54,1.15-14.46,2.05l-2.09,0.48l1.9,1c8.98,4.75,17.15,5.46,21.23,5.46c5.18,0,10.44-1.17,10.51-3.79
			c0.1-3.72-10.62-4.86-17.03-5.21l-0.03,0H135.59z"/>
		<path class="st1" d="M207.24,7.02c32.43,0,69,12.41,93.65,21.74c29.12,11.72,69.54,31.03,84.33,63.23
			c0.31,0.68,0.27,1.31-0.12,1.92c-0.61,0.95-1.95,1.64-3.19,1.64c-1.01,0-1.71-0.43-2.1-1.28C361.58,54.48,275.09,12.4,211.55,12.4
			c-19.79,0-35.42,4.1-46.44,12.17l-3.27,2.4l4.03,0.48c44.52,5.27,78.85,16.55,104.93,34.49c8.02,8.92,11.09,16.28,8.86,21.29
			c-2.5,5.63-11.74,8.87-25.35,8.87c-10.59,0-22.28-2.1-29.79-5.36l-0.06-0.03l-0.03-0.01c-23.78-9.2-68.05-26.32-69.39-54.2
			l-0.07-1.41l-1.41-0.11c-6.24-0.47-13.61-0.94-21.03-0.94c-12.86,0-23.22,1.46-31.69,4.46l-0.05,0.02l-0.05,0.02
			C90.29,39,85.08,44.04,84.81,49.91c-0.45,9.72,13.29,18.48,25.32,25.03l0.57,0.31l0.63-0.18c9.59-2.74,18.28-4.13,25.85-4.13
			c15.15,0,23.08,5.73,23.08,11.38c0,4.5-5.49,9.05-15.98,9.05c-6.73,0-18.19-1.88-34.54-10.82l-0.56-0.31l-0.62,0.17
			c-6.15,1.65-14.36,2.52-23.74,2.52c-30.09,0-67.5-8.84-78.54-28.26c-5.03-8.84-4.06-19.24,2.87-30.89
			c0.51-0.72,1.25-1.09,2.19-1.09c1.34,0,2.76,0.77,3.3,1.79c0.32,0.61,0.27,1.19-0.17,1.83l-0.03,0.05l-0.03,0.05
			c-5.57,9.63-6.12,18.45-1.64,26.22c11.01,19.09,49.2,26.02,72.19,26.02c5.12,0,9.66-0.32,13.49-0.94l4.88-0.79l-4.42-2.21
			c-13.13-6.57-20.59-15.95-19.95-25.1c0.6-8.49,8.03-15.55,20.9-19.88c9.2-2.9,20.13-4.31,33.42-4.31c6.52,0,13.53,0.33,22.09,1.03
			l0.81,0.07l0.53-0.62C167.44,13.37,184.44,7.02,207.24,7.02 M251.49,87c2.24,0.25,4.35,0.37,6.27,0.37
			c11.95,0,14.91-4.79,15.62-7.65c1.61-6.52-5.1-15.18-16.32-21.07l-0.02-0.01l-0.02-0.01c-29.94-14.46-60.65-23.22-93.88-26.77
			l-1.9-0.2l0.14,1.91c1.2,16.78,23.53,30.44,36.74,37.09C216.21,79.76,238.15,86.48,251.49,87 M142.17,85.94
			c5.41,0,11.22-1.2,11.31-4.56c0.09-3.35-5.89-5.38-17.78-6.03l-0.06,0l-0.06,0c-5.42,0.1-10.66,1.16-14.62,2.07l-4.18,0.96
			l3.79,2.01C129.69,85.22,138.02,85.94,142.17,85.94 M207.24,5.43c-20.66,0-39.46,5.08-51.74,19.42
			c-7.15-0.59-14.68-1.04-22.22-1.04c-11.69,0-23.42,1.08-33.9,4.39C68.94,38.42,71.41,62.73,98.2,76.13
			c-3.72,0.6-8.24,0.92-13.24,0.92c-33.86,0-89.67-14.39-69.17-49.84c2.1-3.07-1.24-6.12-4.45-6.12c-1.34,0-2.65,0.53-3.53,1.82
			c-26.16,43.92,35.04,61.62,77.02,61.62c9.42,0,17.87-0.89,24.15-2.58c14.71,8.04,26.57,11.01,35.3,11.01
			c24.63,0,24.37-23.62-7.1-23.62c-7.14,0-15.87,1.21-26.29,4.19c-17.87-9.73-39.68-24.61-9.53-37.55
			c9.47-3.36,20.35-4.37,31.16-4.37c7.14,0,14.25,0.44,20.91,0.94c1.39,28.93,46.33,46.3,70.44,55.63
			c7.62,3.31,19.44,5.49,30.42,5.49c21.47,0,39.79-8.34,17.55-32.96c-30.62-21.12-69.03-30.51-105.8-34.86
			C177.34,17.59,193.32,14,211.55,14c61.48,0,148.46,40.88,166.82,80.94c0.72,1.56,2.1,2.21,3.56,2.21c2.95,0,6.2-2.68,4.76-5.82
			c-14.17-30.85-51.04-50.29-85.19-64.04C277.97,18.38,240.23,5.43,207.24,5.43L207.24,5.43z M257.77,85.78
			c-1.85,0-3.9-0.12-6.15-0.37c-24.5-0.92-86.71-24.92-88.65-51.97c33.16,3.55,64,12.45,93.35,26.62
			C274.37,69.54,279.4,85.78,257.77,85.78L257.77,85.78z M142.17,84.34c-5.74,0-13.34-1.39-20.85-5.37
			c4.68-1.08,9.44-1.94,14.29-2.03C158.11,78.17,154.25,84.34,142.17,84.34L142.17,84.34z"/>
	</g>
	<g>
		<path class="st0" d="M398.34,85.64c-6.95,0-12.21-5.64-16.44-10.17c-1.15-1.24-2.24-2.4-3.23-3.29c-0.93-0.84-1.87-1.68-2.81-2.52
			c-11.51-10.29-23.42-20.93-26.4-33.07l-0.02-0.06l-0.02-0.06c-1.99-5.25-1.15-10.95,2.36-16.06c5.13-7.43,14.76-12.23,24.54-12.23
			c5.69,0,14.07,1.65,21.63,9.5l0.93,0.97l0.69-1.15c5.81-9.68,18.2-15.94,31.56-15.94c11.49,0,21.42,4.49,27.24,12.33
			c12.46,15.14-35.64,55.47-51.44,68.72l-1.07,0.89C403.31,84.92,400.77,85.64,398.34,85.64L398.34,85.64z M376.27,15.35
			c-2.59,0-5.29,0.82-8.24,2.51l-0.11,0.06l-0.09,0.08c-4.6,4.33-6.87,9.09-6.75,14.17c0.3,12.37,14.39,24.4,26.83,35.02
			c3.78,3.23,7.35,6.27,10.27,9.12l0.5,0.49l0.67-0.3l0.46-0.25l0.15-0.45c0.18-0.67,2.29-2.24,3.42-3.08
			c0.74-0.55,1.44-1.07,1.91-1.5c3.24-3.46,7.94-7.47,12.92-11.73c13.64-11.66,29.1-24.88,28.92-37.08
			c-0.06-4.4-2.22-8.34-6.4-11.71l-0.09-0.07l-0.1-0.05c-3.8-1.87-7.18-2.78-10.36-2.78c-7.66,0-12.32,5.33-16.83,10.48
			c-4.02,4.6-7.82,8.94-13.5,9.33c-4.58-0.32-8.03-3.26-11.37-6.11C384.96,18.48,381.29,15.35,376.27,15.35z"/>
		<path class="st1" d="M431.13,2.57c11.16,0,20.78,4.34,26.41,11.91l0.03,0.04l0.03,0.04c6.03,7.33-4.44,21.91-14.29,32.84
			c-12.26,13.61-28.39,27.13-37.05,34.4l-0.99,0.83c-2.37,1.31-4.71,1.97-6.94,1.97c-6.51,0-11.59-5.46-15.68-9.85
			c-1.17-1.25-2.27-2.44-3.3-3.36c-0.93-0.84-1.87-1.68-2.81-2.52c-11.4-10.19-23.18-20.72-26.09-32.55l-0.03-0.12l-0.04-0.12
			c-1.87-4.93-1.07-10.29,2.25-15.11c4.94-7.16,14.24-11.79,23.69-11.79c5.49,0,13.58,1.59,20.88,9.18l1.87,1.94l1.38-2.31
			C406.09,8.63,418.13,2.57,431.13,2.57 M399.88,26.59c-4.2-0.32-7.36-3.01-10.7-5.86c-3.69-3.15-7.51-6.41-12.9-6.41
			c-2.77,0-5.64,0.87-8.75,2.65l-0.21,0.12l-0.18,0.17c-4.82,4.53-7.2,9.56-7.07,14.95c0.31,12.83,14.59,25.02,27.19,35.78
			c3.77,3.22,7.32,6.25,10.22,9.07l1,0.97l1.27-0.57c0.05-0.02,0.1-0.05,0.15-0.07l0.84-0.38l0.23-0.86
			c0.36-0.59,2.11-1.89,3.06-2.6c0.76-0.56,1.48-1.1,1.99-1.57l0.06-0.06l0.06-0.06c3.14-3.35,7.82-7.36,12.78-11.59
			c13.81-11.81,29.47-25.19,29.28-37.87c-0.07-4.72-2.35-8.92-6.78-12.5l-0.18-0.14l-0.21-0.1c-3.94-1.94-7.48-2.88-10.81-2.88
			c-8.13,0-13.16,5.75-17.6,10.83C408.74,22.02,405.09,26.19,399.88,26.59 M431.13,0.51c-12.9,0-26.02,5.74-32.44,16.44
			c-6.71-6.96-14.7-9.81-22.37-9.81c-17.6,0-33.44,15.01-27.86,29.69c3.31,13.44,16.94,24.79,29.52,36.11
			c4.42,3.98,10.91,13.73,20.36,13.73c2.49,0,5.19-0.68,8.12-2.33c16.45-13.81,66.12-54.84,52.75-71.08
			C452.77,4.61,442.02,0.51,431.13,0.51L431.13,0.51z M399.88,28.65c12.74-0.8,16.44-19.81,30.33-19.81c2.82,0,6.07,0.79,9.9,2.67
			C461.8,29,418.92,55.19,404.62,70.46c-1.43,1.3-5.24,3.6-5.63,5.08c-0.03,0.01-0.05,0.03-0.08,0.04
			c-15.98-15.55-51.23-37.2-30.36-56.82c2.96-1.69,5.49-2.38,7.73-2.38C385.53,16.38,389.95,28.02,399.88,28.65L399.88,28.65z"/>
	</g>
</g>
<g>
	<path class="st0" d="M416.61,96.35c-1.52,0-3.1-0.83-3.86-2.01c-0.54-0.85-0.6-1.75-0.17-2.68c14.91-32.45,55.52-51.86,84.76-63.63
		c24.73-9.35,61.39-21.8,93.95-21.8c23.05,0,40.25,6.44,51.13,19.14l0.27,0.31l0.41-0.03c8.58-0.71,15.62-1.04,22.15-1.04
		c13.37,0,24.38,1.42,33.66,4.35c13.21,4.44,20.84,11.75,21.46,20.58c0.67,9.48-6.96,19.15-20.39,25.87l-2.21,1.11l2.44,0.4
		c3.79,0.62,8.29,0.93,13.36,0.93c22.8,0,60.65-6.82,71.5-25.62c4.33-7.5,3.78-16.05-1.64-25.42c-0.64-0.94-0.71-1.83-0.25-2.71
		c0.68-1.29,2.36-2.22,4.01-2.22c0.85,0,2.04,0.26,2.88,1.47c7.08,11.9,8.06,22.58,2.88,31.7c-11.19,19.7-48.92,28.67-79.24,28.67
		c-9.45,0-17.73-0.88-23.95-2.55l-0.31-0.08l-0.28,0.15c-16.5,9.02-28.1,10.92-34.92,10.92c-11.53,0-16.78-5.11-16.78-9.85
		c0-3.01,2.06-5.98,5.66-8.15c4.36-2.63,10.66-4.02,18.22-4.02c7.64,0,16.42,1.4,26.07,4.16l0.31,0.09l0.29-0.16
		c11.82-6.44,25.34-15.01,24.91-24.29c-0.25-5.46-5.45-10.4-15.45-14.69c-8.43-2.99-18.71-4.43-31.47-4.43
		c-7.39,0-14.75,0.48-20.97,0.94l-0.7,0.05l-0.03,0.71c-1.36,28.4-45.94,45.64-69.9,54.91c-7.66,3.32-19.48,5.45-30.17,5.45
		c-13.94,0-23.44-3.4-26.08-9.34c-2.4-5.41,0.65-12.88,9.06-22.22c26.2-18.04,60.67-29.39,105.37-34.67l2.01-0.24l-1.64-1.2
		c-10.88-7.97-26.35-12.02-45.97-12.02c-63.29,0-149.42,41.84-167.55,81.4C418.74,96.12,417.36,96.35,416.61,96.35
		C416.61,96.35,416.61,96.35,416.61,96.35z M635.48,32.64c-33.13,3.54-63.76,12.28-93.62,26.7c-10.92,5.73-17.46,14.03-15.94,20.19
		c0.65,2.63,3.44,7.05,14.84,7.05c1.91,0,4.01-0.13,6.24-0.38c13.18-0.49,35.02-7.18,53.06-16.27c13.05-6.57,35.12-20.05,36.3-36.44
		l0.07-0.95L635.48,32.64z M662.88,76.14c-6.4,0.35-17.13,1.5-17.03,5.21c0.07,2.62,5.33,3.79,10.51,3.79
		c4.08,0,12.25-0.71,21.23-5.46l1.89-1l-2.09-0.48c-3.92-0.9-9.11-1.95-14.46-2.05h-0.03L662.88,76.14z"/>
	<path class="st1" d="M591.29,7.02c22.81,0,39.81,6.35,50.53,18.86l0.53,0.62l0.81-0.07c8.55-0.71,15.57-1.03,22.09-1.03
		c13.29,0,24.22,1.41,33.4,4.31c12.9,4.33,20.34,11.39,20.93,19.89c0.64,9.15-6.82,18.53-19.95,25.1l-4.42,2.21l4.88,0.79
		c3.83,0.62,8.37,0.94,13.49,0.94c22.98,0,61.17-6.93,72.19-26.02c4.48-7.77,3.93-16.59-1.64-26.21l-0.03-0.05l-0.03-0.05
		c-0.44-0.64-0.49-1.22-0.17-1.83c0.54-1.02,1.96-1.79,3.3-1.79c0.94,0,1.68,0.37,2.19,1.09c6.93,11.66,7.89,22.05,2.87,30.9
		c-11.04,19.42-48.45,28.26-78.54,28.26c-9.38,0-17.59-0.87-23.74-2.52l-0.62-0.17l-0.56,0.31c-16.35,8.94-27.8,10.82-34.54,10.82
		c-7.31,0-12.97-2.23-15.13-5.98c-1.16-2.01-1.13-4.29,0.1-6.4c2.91-5.04,11.18-8.05,22.13-8.05c7.57,0,16.27,1.39,25.86,4.13
		l0.63,0.18l0.57-0.31c12.03-6.55,25.77-15.31,25.32-25.03c-0.27-5.87-5.48-10.91-15.93-15.39l-0.05-0.02l-0.05-0.02
		c-8.47-3-18.84-4.46-31.69-4.46c-7.42,0-14.79,0.48-21.03,0.94l-1.41,0.11l-0.07,1.41c-1.34,27.88-45.61,45-69.42,54.22l-0.03,0.01
		l-0.03,0.01c-7.51,3.26-19.2,5.36-29.79,5.36c-13.61,0-22.85-3.23-25.35-8.87c-2.22-5.01,0.84-12.37,8.86-21.29
		c26.08-17.94,60.41-29.22,104.93-34.49l4.03-0.48l-3.27-2.4c-11.02-8.08-26.65-12.17-46.44-12.17
		c-63.54,0-150.04,42.08-168.27,81.87c-0.39,0.85-1.1,1.28-2.1,1.28c-1.24,0-2.58-0.69-3.19-1.64c-0.39-0.61-0.43-1.24-0.12-1.92
		c14.79-32.2,55.22-51.5,84.3-63.21C522.29,19.44,558.86,7.02,591.29,7.02 M540.76,87.37c1.93,0,4.04-0.13,6.27-0.37
		c13.34-0.52,35.28-7.24,53.38-16.35c13.2-6.65,35.53-20.31,36.74-37.09l0.14-1.91l-1.9,0.2c-33.23,3.55-63.93,12.31-93.88,26.77
		l-0.02,0.01l-0.02,0.01c-11.22,5.89-17.93,14.56-16.32,21.08C525.85,82.58,528.82,87.37,540.76,87.37 M656.36,85.94
		c4.15,0,12.47-0.72,21.6-5.56l3.79-2.01l-4.18-0.96c-3.96-0.91-9.2-1.97-14.62-2.07l-0.06,0l-0.06,0
		c-11.89,0.65-17.87,2.68-17.78,6.03C645.15,84.74,650.96,85.94,656.36,85.94 M591.29,5.43c-32.99,0-70.72,12.96-94.25,21.85
		c-34.15,13.75-71.01,33.19-85.19,64.04c-1.45,3.15,1.8,5.82,4.76,5.82c1.46,0,2.84-0.65,3.56-2.21
		C438.52,54.88,525.51,14,586.98,14c18.23,0,34.2,3.59,45.5,11.86c-36.77,4.35-75.18,13.74-105.8,34.86
		c-22.23,24.61-3.92,32.96,17.55,32.96c10.99,0,22.8-2.19,30.42-5.49c24.11-9.32,69.05-26.69,70.44-55.63
		c6.66-0.5,13.77-0.94,20.91-0.94c10.82,0,21.69,1.01,31.16,4.37c30.16,12.94,8.35,27.82-9.53,37.55
		c-10.42-2.98-19.16-4.19-26.29-4.19c-31.47,0-31.73,23.62-7.1,23.62c8.73,0,20.59-2.97,35.3-11.01c6.28,1.69,14.74,2.58,24.15,2.58
		c41.98,0,103.18-17.7,77.02-61.62c-0.88-1.29-2.19-1.82-3.53-1.82c-3.2,0-6.55,3.05-4.45,6.12c20.5,35.45-35.31,49.84-69.17,49.84
		c-5,0-9.51-0.31-13.24-0.92c26.79-13.4,29.25-37.71-1.19-47.93c-10.48-3.31-22.22-4.39-33.9-4.39c-7.54,0-15.06,0.45-22.22,1.04
		C630.74,10.51,611.95,5.43,591.29,5.43L591.29,5.43z M540.76,85.78c-21.64,0-16.61-16.24,1.45-25.72
		c29.35-14.18,60.2-23.08,93.35-26.62c-1.94,27.04-64.15,51.05-88.65,51.97C544.66,85.66,542.62,85.78,540.76,85.78L540.76,85.78z
		 M656.36,84.34c-12.09,0-15.95-6.17,6.56-7.4c4.85,0.09,9.61,0.96,14.29,2.03C669.71,82.95,662.11,84.34,656.36,84.34L656.36,84.34
		z"/>
</g>
</svg>
