<svg xmlns="http://www.w3.org/2000/svg" viewBox="0 0 800 100"><defs><style>.a{fill:#e4c0ca;stroke:#000;stroke-miterlimit:10;stroke-width:0.88px;}</style></defs><path class="a" d="M684.78,76.5c1,33-28.59,17.6-38.61,14.87-15.94-3-152.31-8.41-267.85-8.92-122.36-.54-213,7.93-237.19,12.89-17.52,5.66-32.28-12.63-34.32-35.69,2.14-11.9,10.62-32.72,27.88-32.72s67.12,12.89,100.83,16.85c15.39,1.82,44.61,3.69,57,3,17.16-1,24.52-5,35.55-3s18.39,6.94,24.52,7.94,23-10.67,37.08-11.9c11.67-1,20.84,14.87,33.09,12.39,5-1,23-13.38,31-15.37s27.58,12.89,35.54,13.88,23.91-13.38,34.33-14.37S543.2,49.73,557.3,52.71,614.91,28.91,620.43,24,636.36,4.13,643.72,3.14s13.48,3.47,12.87,11.4-3.68,17.35-10.42,20.32c-10.48,4.62-15.32,6.94-27,7.93-6.76.58-39.22,23.8-47.8,24.79s-15.94,2-27-3-12.26-9.91-19-10.9-26.36,11.9-33.1,11.9-29.42-10.91-36.16-9.92-27.28,16.36-34,13.39-25.44-12.4-33.4-11.41-25.13,11.9-34.33,10.91S333,58.66,323.78,57.66s-27,9.92-35.55,6.94-74.16-8.92-100.52-12.88-45.84-9.76-56.39-4c-9.55,5.23-12.56,13.38-12.87,21.81-.32,8.85,7.61,14.14,27,8.92C158.29,75,201.2,73.16,253.6,68.57c41-3.6,118.55,1,154.76,2,38,1,105.95,2.48,143.42,2s67.42-1,85.81-2,6.44-5,31.87-6c7.38-.28,11.34,5.46,15.32,11.9Z"/></svg>