<?xml version="1.0" encoding="utf-8"?>
<!-- Generator: Adobe Illustrator 25.2.1, SVG Export Plug-In . SVG Version: 6.00 Build 0)  -->
<svg version="1.1" id="Layer_1" xmlns="http://www.w3.org/2000/svg" xmlns:xlink="http://www.w3.org/1999/xlink" x="0px" y="0px"
	 viewBox="0 0 640 480" style="enable-background:new 0 0 640 480;" xml:space="preserve">
<style type="text/css">
	.st0{fill:#F7C0CA;}
	.st1{fill:#020202;}
</style>
<g>
	<g>
		<path class="st0" d="M455.26,251.36c-3.68,0-6.33-0.88-7.88-2.62c-1.86-2.08-2.27-5.07-1.02-7.43c2.11-3.99,7.37-4.83,11.41-4.83
			c3.63,0,6.84,0.65,8.43,1.03c2.85,0.69,5.61,1.59,8.29,2.46l0.45,0.15l0.2-0.13c2.01-1.28,4.09-2.72,6.77-4.66l0.35-0.25
			c3.14-2.27,6.7-4.85,7.14-9.19c0.29-2.93-0.46-5.51-2.25-7.69c-3.47-4.23-10.77-6.9-21.67-7.94c-2.93-0.28-6.04-0.42-9.25-0.42
			c-1.65,0-3.37,0.04-5.11,0.11l-0.49,0.02l0.01,0.49c0.05,3.19-0.78,6.45-2.41,9.43c-4.77,8.77-15.25,14.75-22.9,19.12
			c-11.44,6.53-21.68,9.73-31.31,9.78l-0.32,0c-6.83,0-11.55-1.35-14.04-4.02c-1.63-1.75-2.35-4.11-2.15-7.03
			c0.63-9.24,10.07-14.79,18.22-18.6c13.5-6.31,24.89-9.99,35.82-11.59c4.83-0.71,9.1-1.22,13.07-1.56l0.79-0.07l-0.41-0.69
			c-0.33-0.56-0.71-1.11-1.13-1.62c-5.34-6.54-16.51-7.22-23.18-7.62c-1.67-0.1-3.38-0.15-5.07-0.15
			c-16.39,0-33.62,4.64-54.23,14.59c-13.5,6.52-32.36,17.36-40.35,36.16c-0.31,0.73-0.83,1.11-1.5,1.11c-0.74,0-1.56-0.48-2.03-1.19
			c-0.26-0.4-0.64-1.22-0.21-2.26c10.03-23.61,36.15-36.15,57.79-44.44c14.95-5.73,27.66-8.4,39.99-8.4l0.67,0
			c10.35,0.08,21.91,0.99,29.24,7.13c2.19,1.84,3.78,4.1,4.72,6.72l0.12,0.35l0.37-0.02c2.07-0.1,4.11-0.15,6.05-0.15
			c3.9,0,7.52,0.19,11.04,0.6c9.25,1.05,19.36,3.21,24.29,11.2c4.17,6.77,2.43,14.16-4.66,19.76c-2.01,1.59-3.82,2.96-5.55,4.19
			l-0.87,0.62l1.03,0.27c3.43,0.9,6.39,1.35,9.3,1.42c0.53,0.01,1.06,0.02,1.59,0.02c6.78,0,13.5-1.01,19.97-3.02
			c7.94-2.45,13.54-5.75,17.12-10.08c5.66-6.85,3.57-14.62,0.82-19.93c-0.37-0.72-0.36-1.48,0.04-2.14
			c0.44-0.72,1.27-1.21,2.08-1.21c0.5,0,1.19,0.19,1.65,1.08c5.59,10.8,3.97,21.09-4.46,28.21c-9.39,7.95-22.55,10.5-31.94,11.24
			c-1.84,0.14-3.66,0.22-5.41,0.22c-3.26,0-6.41-0.26-9.36-0.76c-2.64-0.45-5.16-1.26-7.27-2l-0.22-0.08l-0.2,0.12
			c-5.4,3.17-10.36,5.04-15.15,5.73C458.25,251.24,456.67,251.36,455.26,251.36z M458.6,240.91c-2.07,0-3.83,0.26-5.39,0.79
			c-2.41,0.82-2.62,1.99-2.54,2.62c0.19,1.34,2.05,2.47,4.25,2.58c0.35,0.02,0.7,0.03,1.05,0.03c4,0,8.16-1.06,12.72-3.25l1.13-0.54
			l-1.19-0.38c-3.59-1.16-6.4-1.71-9.12-1.81C459.2,240.91,458.9,240.91,458.6,240.91z M445.96,210.29
			c-3.21,0.25-6.49,0.6-10.02,1.06c-10.25,1.34-19.9,3.9-29.49,7.83c-0.94,0.38-1.95,0.78-3.01,1.19
			c-8.12,3.17-19.24,7.52-21.36,16.43c-0.47,1.99-0.21,3.64,0.78,4.9c1.49,1.89,4.59,2.84,9.22,2.84c6.25,0,13.75-1.78,16.4-2.64
			c7.97-2.59,16.04-6.9,25.4-13.57c3.75-2.68,12.5-9.75,12.62-17.54l0.01-0.55L445.96,210.29z"/>
		<path class="st1" d="M415.07,191.95c0.22,0,0.44,0,0.66,0c10.26,0.08,21.72,0.98,28.92,7.01c2.12,1.78,3.66,3.97,4.57,6.51
			l0.25,0.7l0.74-0.04c2.07-0.1,4.09-0.15,6.03-0.15c3.89,0,7.48,0.19,10.99,0.59c9.13,1.04,19.1,3.15,23.92,10.97
			c4.03,6.54,2.33,13.68-4.55,19.11c-2,1.58-3.81,2.94-5.53,4.17l-1.74,1.24l2.07,0.54c3.47,0.91,6.46,1.36,9.41,1.43
			c0.53,0.01,1.07,0.02,1.6,0.02c6.83,0,13.6-1.02,20.12-3.04c8.04-2.48,13.71-5.83,17.35-10.24c4.62-5.59,4.92-12.67,0.88-20.48
			c-0.37-0.72-0.19-1.29,0.02-1.65c0.35-0.57,1.03-0.97,1.65-0.97c0.52,0,0.93,0.27,1.21,0.81c5.48,10.58,3.9,20.64-4.33,27.6
			c-9.29,7.86-22.34,10.39-31.65,11.12c-1.83,0.14-3.63,0.22-5.37,0.22c-3.23,0-6.35-0.25-9.28-0.75c-2.6-0.44-5.1-1.25-7.19-1.98
			l-0.44-0.15l-0.4,0.23c-5.34,3.13-10.24,4.99-14.97,5.67c-1.82,0.26-3.37,0.39-4.76,0.39c-3.53,0-6.05-0.82-7.5-2.45
			c-1.72-1.93-2.1-4.69-0.95-6.86c2-3.77,7.07-4.56,10.97-4.56c3.58,0,6.74,0.64,8.32,1.02c2.83,0.68,5.58,1.58,8.24,2.45l0.24,0.08
			l0.45,0.15l0.4-0.26c2.02-1.29,4.11-2.73,6.79-4.67l0.35-0.25c3.23-2.33,6.88-4.98,7.34-9.54c0.31-3.06-0.49-5.77-2.36-8.05
			c-3.56-4.33-10.97-7.07-22.01-8.12c-2.95-0.28-6.07-0.42-9.29-0.42c-1.65,0-3.38,0.04-5.13,0.11l-0.97,0.04l0.01,0.97
			c0.05,3.1-0.76,6.28-2.35,9.19c-4.71,8.65-15.11,14.59-22.71,18.92c-11.36,6.48-21.52,9.66-31.07,9.72l-0.32,0
			c-6.68,0-11.28-1.3-13.68-3.86c-1.55-1.66-2.21-3.84-2.02-6.66c0.61-8.92,9.41-14.2,17.94-18.18c13.46-6.29,24.8-9.96,35.68-11.55
			c4.82-0.7,9.08-1.21,13.04-1.55l1.59-0.14l-0.81-1.37c-0.35-0.6-0.74-1.14-1.17-1.68c-5.48-6.71-16.78-7.39-23.53-7.8
			c-1.68-0.1-3.4-0.15-5.1-0.15c-16.47,0-33.77,4.65-54.45,14.64c-13.57,6.56-32.54,17.46-40.59,36.41
			c-0.23,0.54-0.57,0.81-1.04,0.81c-0.57,0-1.23-0.4-1.61-0.96c-0.26-0.39-0.49-1.01-0.16-1.78c9.96-23.44,35.97-35.91,57.51-44.17
			C390.16,194.61,402.81,191.95,415.07,191.95 M392.08,245.04c6.82,0,14.43-1.97,16.55-2.66c8.02-2.6,16.14-6.94,25.54-13.64
			c3.82-2.72,12.71-9.92,12.83-17.94l0.02-1.1l-1.1,0.09c-3.18,0.25-6.56,0.61-10.04,1.06c-10.29,1.34-19.98,3.92-29.62,7.87
			c-0.93,0.38-1.94,0.78-3,1.19c-8.22,3.21-19.48,7.61-21.67,16.78c-0.51,2.15-0.22,3.94,0.88,5.32
			C384.06,244.02,387.29,245.04,392.08,245.04 M455.97,247.41c4.07,0,8.3-1.08,12.94-3.3l2.26-1.08l-2.39-0.77
			c-3.63-1.17-6.49-1.74-9.26-1.83c-0.31-0.01-0.61-0.02-0.92-0.02c-2.12,0-3.94,0.27-5.55,0.82c-2.75,0.94-2.98,2.38-2.87,3.16
			c0.26,1.82,2.62,2.91,4.72,3.01C455.25,247.41,455.61,247.41,455.97,247.41 M415.07,190.95c-13.99,0-27.17,3.45-40.17,8.43
			c-22.42,8.59-48.13,21.31-58.07,44.71c-0.92,2.16,0.97,4.14,2.69,4.14c0.79,0,1.54-0.41,1.96-1.42
			c7.33-17.25,23.82-28.03,40.11-35.9c16.97-8.2,35.08-14.54,54.01-14.54c1.67,0,3.35,0.05,5.04,0.15
			c7.37,0.45,17.73,1.21,22.82,7.44c0.42,0.52,0.78,1.03,1.09,1.55c-4.38,0.38-8.76,0.92-13.1,1.56
			c-12.62,1.85-24.45,6.26-35.96,11.63c-7.74,3.62-17.83,9.21-18.51,19.02c-0.68,9.91,8.86,11.59,16.69,11.59c0.11,0,0.22,0,0.32,0
			c11.2-0.06,21.96-4.37,31.56-9.85c8.32-4.75,18.36-10.62,23.09-19.31c1.68-3.08,2.52-6.42,2.47-9.68c1.7-0.07,3.4-0.11,5.09-0.11
			c3.07,0,6.14,0.13,9.2,0.42c8.24,0.79,24.64,3.42,23.48,15.08c-0.43,4.27-4.07,6.75-7.29,9.08c-2.21,1.6-4.44,3.17-6.74,4.64
			c-2.79-0.91-5.6-1.84-8.55-2.55c-2.27-0.55-5.39-1.05-8.55-1.05c-4.84,0-9.77,1.17-11.85,5.1c-1.38,2.61-0.84,5.83,1.09,7.99
			c1.94,2.18,5.14,2.78,8.25,2.78c1.74,0,3.45-0.19,4.9-0.4c5.4-0.77,10.53-2.98,15.34-5.79c2.41,0.84,4.85,1.59,7.35,2.02
			c3.12,0.53,6.28,0.77,9.45,0.77c1.82,0,3.64-0.08,5.45-0.22c11.23-0.89,23.44-3.93,32.22-11.36c9.1-7.7,9.86-18.61,4.58-28.82
			c-0.5-0.96-1.29-1.35-2.09-1.35c-1.79,0-3.66,1.95-2.56,4.08c3.34,6.46,4.1,13.49-0.76,19.38c-4.19,5.07-10.73,8.02-16.88,9.92
			c-6.4,1.98-13.12,2.99-19.82,2.99c-0.53,0-1.05-0.01-1.58-0.02c-3.22-0.08-6.24-0.63-9.18-1.4c1.92-1.37,3.78-2.79,5.56-4.2
			c6.54-5.16,9.47-12.8,4.78-20.42c-5.1-8.28-15.73-10.42-24.66-11.44c-3.69-0.42-7.4-0.6-11.1-0.6c-2.03,0-4.05,0.05-6.07,0.15
			c-0.93-2.59-2.52-4.97-4.87-6.94c-7.76-6.5-19.94-7.17-29.56-7.25C415.52,190.96,415.29,190.95,415.07,190.95L415.07,190.95z
			 M392.08,244.04c-5.95,0-10.83-1.6-9.52-7.13c2.34-9.8,16.04-13.98,24.08-17.28c9.5-3.89,19.19-6.47,29.37-7.8
			c3.31-0.43,6.65-0.79,9.99-1.05c-0.11,6.82-7.14,13.38-12.41,17.14c-7.74,5.52-16.18,10.56-25.26,13.5
			C405.68,242.29,398.3,244.04,392.08,244.04L392.08,244.04z M455.97,246.41c-0.34,0-0.68-0.01-1.03-0.02
			c-3.2-0.15-5.83-2.77-1.58-4.22c1.67-0.57,3.47-0.76,5.23-0.76c0.3,0,0.59,0.01,0.89,0.02c3.1,0.11,6.06,0.84,8.99,1.78
			C464.56,245.09,460.33,246.41,455.97,246.41L455.97,246.41z"/>
	</g>
	<g>
		<path class="st0" d="M167.09,251.72c-7.09,0-15.13-3.99-17.42-5.21c-0.75-0.4-1.57-0.84-2.41-1.29l-0.19-0.1l-0.2,0.06
			c-5.76,1.8-11.54,2.68-17.65,2.68c-3.93,0-8.06-0.38-12.27-1.13c-12.13-2.17-21.14-6.46-26.77-12.76
			c-6.18-6.91-6.83-16.03-1.84-25.69c0.46-0.9,1.15-1.09,1.65-1.09c0.8,0,1.64,0.49,2.08,1.21c0.4,0.66,0.41,1.42,0.04,2.14
			c-3.01,5.82-3.39,11.22-1.13,16.06c3.27,6.97,12.42,12.72,24.46,15.36c5.05,1.11,9.95,1.67,14.56,1.67c3.2,0,6.27-0.27,9.13-0.82
			c0.57-0.11,1.13-0.23,1.69-0.36l1.15-0.27l-0.99-0.64c-6.68-4.29-10.56-8.42-11.86-12.63c-2.59-8.38,3.73-16.11,11.32-19.41
			c6.28-2.74,14.21-4.07,24.24-4.07c2.28,0,4.72,0.06,7.46,0.2l0.37,0.02l0.13-0.34c2.68-7.2,10.3-10.32,14.6-11.54
			c6-1.7,12.43-2.56,19.11-2.56c14.24,0,30.25,3.88,48.94,11.85c16.95,7.23,40.57,19.38,49.85,41.23c0.44,1.03,0.06,1.86-0.2,2.26
			c-0.47,0.71-1.28,1.19-2.03,1.19c0,0,0,0,0,0c-0.67,0-1.2-0.38-1.5-1.11c-8.94-21.03-31.75-32.72-48.13-39.68
			c-18.23-7.75-33.1-11.35-46.8-11.35c-6.32,0-12.41,0.81-18.08,2.42c-4.8,1.36-8.57,3.94-10.61,7.25l-0.43,0.7l0.82,0.06
			c12.06,0.95,22.38,2.95,31.55,6.11c5.13,1.77,10.53,4,17.01,7.03l1.21,0.56c4.12,1.91,8.01,3.71,11.08,7.02
			c3.1,3.34,6.51,8.97,5.93,13.85c-0.29,2.4-1.54,4.36-3.72,5.81c-2.79,1.85-6.59,2.79-11.31,2.79c-6.71,0-13.59-1.91-17.08-3.04
			c-9.46-3.07-19.24-8.42-29.04-15.91c-5.61-4.28-12.26-11.18-12.11-19.75l0.01-0.49l-0.92-0.04c-2.59-0.1-4.6-0.14-6.52-0.14
			c-6.24,0-15.4,0.42-22.9,4.06c-5.09,2.47-9.6,7.52-8.2,13.21c0.91,3.68,4.26,6.05,7.22,8.14l0.89,0.63c2,1.44,4.16,2.97,6.37,4.38
			l0.2,0.13l1.38-0.47c5.02-1.72,9.77-3.34,14.89-3.34c1.73,0,3.37,0.19,5.02,0.56c3.15,0.73,6.79,3.11,7.65,6.27
			c0.54,1.98-0.17,3.96-2.05,5.75C172.93,250.86,170.36,251.72,167.09,251.72z M163.73,240.89c-0.56,0-1.12,0.02-1.68,0.06
			c-3.06,0.23-6,1.1-8.22,1.83l-1.18,0.39l1.12,0.54c4.49,2.16,8.64,3.2,12.67,3.2c0.36,0,0.73-0.01,1.1-0.03
			c1.72-0.08,3.71-0.84,4.2-2.12c0.2-0.52,0.23-1.35-0.74-2.3c-0.65-0.63-1.62-0.82-2.48-0.99c-0.21-0.04-0.41-0.08-0.59-0.12
			C166.63,241.05,165.22,240.89,163.73,240.89z M176.15,210.8c-0.04,2.22,0.58,4.53,1.86,6.87c4.44,8.11,14.09,13.51,21.85,17.85
			l0.32,0.18c10.39,5.82,19.64,8.67,28.26,8.72l0.53,0c4.04,0,8.91-0.35,10.78-3.08c0.99-1.44,1.02-3.36,0.11-5.72
			c-1.47-3.81-4.97-7.52-9.12-9.68c-17.39-9.04-35.07-14.16-54.07-15.64l-0.53-0.04L176.15,210.8z"/>
		<path class="st1" d="M206.36,191.71c14.17,0,30.12,3.86,48.74,11.81c16.87,7.2,40.37,19.28,49.59,40.96
			c0.33,0.78,0.09,1.4-0.16,1.78c-0.37,0.57-1.04,0.96-1.61,0.96c-0.47,0-0.81-0.26-1.04-0.81c-9.01-21.2-31.93-32.95-48.39-39.94
			c-18.3-7.77-33.23-11.39-47-11.39c-6.37,0-12.5,0.82-18.22,2.44c-4.92,1.4-8.79,4.05-10.9,7.47l-0.86,1.39l1.63,0.13
			c12.01,0.95,22.29,2.94,31.43,6.08c5.11,1.76,10.5,3.99,16.96,7.01l1.21,0.56c4.07,1.89,7.92,3.67,10.93,6.91
			c3.26,3.52,6.32,9.04,5.8,13.45c-0.27,2.25-1.45,4.09-3.5,5.45c-2.7,1.8-6.41,2.71-11.03,2.71c-6.64,0-13.46-1.89-16.93-3.02
			c-9.41-3.05-19.13-8.38-28.89-15.83c-4.52-3.45-12.07-10.54-11.92-19.35l0.02-0.98l-0.98-0.04l-0.2-0.01l-0.23-0.01
			c-2.59-0.1-4.61-0.14-6.54-0.14c-6.29,0-15.53,0.43-23.12,4.11c-5.27,2.56-9.93,7.81-8.46,13.78c0.95,3.86,4.53,6.39,7.41,8.43
			c0.3,0.21,0.6,0.42,0.89,0.63c2.01,1.44,4.17,2.97,6.39,4.39l0.41,0.26l0.46-0.15l1.16-0.39c4.98-1.7,9.69-3.31,14.73-3.31
			c1.69,0,3.3,0.18,4.91,0.55c3.51,0.81,6.57,3.3,7.28,5.91c0.49,1.81-0.15,3.58-1.91,5.25c-1.71,1.62-4.16,2.44-7.3,2.44
			c-6.97,0-14.92-3.94-17.19-5.15c-0.75-0.4-1.56-0.84-2.4-1.29l-0.37-0.2l-0.4,0.13c-5.72,1.79-11.44,2.66-17.5,2.66
			c-3.9,0-8-0.38-12.18-1.13c-11.85-2.12-21.01-6.47-26.48-12.6c-8.14-9.1-4.6-19.65-1.76-25.12c0.28-0.54,0.69-0.82,1.21-0.82
			c0.62,0,1.3,0.4,1.65,0.97c0.22,0.36,0.4,0.93,0.02,1.65c-3.09,5.97-3.47,11.52-1.13,16.5c3.34,7.11,12.61,12.96,24.81,15.64
			c5.08,1.12,10.02,1.68,14.67,1.68c3.23,0,6.33-0.28,9.22-0.82c0.5-0.1,1.03-0.21,1.71-0.37l2.3-0.54l-1.99-1.28
			c-6.58-4.22-10.39-8.27-11.65-12.36c-2.5-8.1,3.66-15.59,11.04-18.81c6.22-2.71,14.08-4.03,24.04-4.03c2.27,0,4.7,0.06,7.44,0.2
			l0.73,0.04l0.26-0.69c2.6-6.99,10.05-10.04,14.27-11.23C193.34,192.57,199.73,191.71,206.36,191.71 M228.98,244.93
			c4.42,0,9.2-0.39,11.19-3.3c1.08-1.58,1.14-3.66,0.17-6.18c-1.51-3.92-5.1-7.73-9.36-9.94c-17.45-9.07-35.2-14.21-54.26-15.69
			l-1.06-0.08l-0.02,1.06c-0.04,2.31,0.6,4.7,1.92,7.12c4.51,8.24,14.23,13.68,22.04,18.05l0.32,0.18
			c10.47,5.86,19.79,8.73,28.51,8.78L228.98,244.93 M166.43,247.42c0.37,0,0.75-0.01,1.12-0.03c1.82-0.09,4.05-0.89,4.65-2.44
			c0.21-0.54,0.37-1.63-0.86-2.83c-0.75-0.74-1.85-0.95-2.73-1.12c-0.2-0.04-0.39-0.08-0.57-0.12c-1.33-0.32-2.79-0.48-4.32-0.48
			c-0.56,0-1.14,0.02-1.72,0.06c-3.11,0.23-6.09,1.11-8.34,1.85l-2.35,0.78l2.24,1.07C158.11,246.35,162.32,247.42,166.43,247.42
			 M206.36,190.71c-6.45,0-12.9,0.78-19.25,2.58c-6.41,1.82-12.57,5.51-14.93,11.84c-2.44-0.12-4.95-0.2-7.49-0.2
			c-8.34,0-17,0.87-24.44,4.11c-7.66,3.34-14.33,11.18-11.6,20.02c1.6,5.16,6.75,9.49,12.07,12.9c-0.55,0.13-1.11,0.25-1.67,0.36
			c-2.95,0.56-5.99,0.81-9.04,0.81c-4.88,0-9.8-0.64-14.46-1.66c-15.05-3.31-32.04-13.25-23-30.7c1.1-2.12-0.77-4.08-2.56-4.08
			c-0.81,0-1.6,0.4-2.09,1.36c-4.56,8.82-5,18.52,1.91,26.25c6.73,7.52,17.39,11.19,27.05,12.92c4.18,0.75,8.29,1.14,12.35,1.14
			c5.99,0,11.9-0.86,17.8-2.7c0.84,0.46,1.66,0.89,2.41,1.3c4.18,2.22,11.44,5.27,17.66,5.27c3.08,0,5.91-0.75,7.99-2.71
			c5.8-5.5-0.1-11.54-5.83-12.86c-1.75-0.4-3.46-0.58-5.13-0.58c-5.61,0-10.86,1.95-16.2,3.76c-2.19-1.4-4.31-2.9-6.35-4.36
			c-3.02-2.17-6.96-4.61-7.91-8.48c-1.38-5.61,3.34-10.41,7.93-12.64c6.76-3.28,14.94-4.01,22.69-4.01c2.22,0,4.4,0.06,6.5,0.14
			c0.14,0.01,0.28,0.02,0.43,0.02c-0.15,8.27,5.98,15.33,12.31,20.16c8.77,6.69,18.67,12.57,29.19,15.98
			c4.69,1.52,11.16,3.07,17.24,3.07c4.31,0,8.42-0.77,11.58-2.87c7.77-5.16,2.68-15.25-2.12-20.42c-3.44-3.71-7.93-5.58-12.44-7.69
			c-5.57-2.6-11.24-5.04-17.06-7.05c-10.18-3.51-20.93-5.29-31.67-6.14c2.04-3.32,5.87-5.77,10.32-7.03
			c5.91-1.68,11.92-2.4,17.94-2.4c16.01,0,32.1,5.15,46.61,11.31c18.95,8.05,39.43,19.58,47.86,39.41c0.43,1,1.18,1.42,1.96,1.42
			c1.72,0,3.61-1.97,2.69-4.14c-8.82-20.76-30.31-33.04-50.12-41.49C240.19,196.07,223.25,190.71,206.36,190.71L206.36,190.71z
			 M228.98,243.93c-0.18,0-0.36,0-0.53,0c-9.94-0.06-19.46-3.87-28.02-8.66c-7.8-4.37-17.54-9.74-21.98-17.84
			c-1.29-2.36-1.84-4.57-1.8-6.62c18.99,1.48,36.8,6.7,53.88,15.58c3.72,1.93,7.34,5.42,8.88,9.41
			C242.33,243.38,234.32,243.93,228.98,243.93L228.98,243.93z M166.43,246.42c-4.37,0-8.52-1.27-12.45-3.16
			c2.65-0.87,5.34-1.6,8.1-1.81c0.55-0.04,1.1-0.06,1.65-0.06c1.37,0,2.75,0.13,4.08,0.45c0.89,0.21,2.15,0.31,2.83,0.98
			c2.07,2.03-0.89,3.45-3.14,3.56C167.15,246.41,166.79,246.42,166.43,246.42L166.43,246.42z"/>
	</g>
	<g>
		<path class="st0" d="M311.94,242.6c-2.36,0-4.32-3.81-5.75-6.59c-0.41-0.81-0.8-1.57-1.16-2.15l-1.01-1.64
			c-4.16-6.75-8.47-13.73-9.56-21.77c-0.92-6.78,0.39-15.62,7.09-18.26c1.01-0.4,1.96-0.6,2.81-0.6c3.1,0,4.87,2.63,6.76,5.42
			l1.03,1.51l0.37-0.79c1.86-3.96,4.17-8.9,8.48-10.27c0.74-0.24,1.51-0.36,2.28-0.36c4.67,0,8.7,4.21,10.12,8.17
			c2.61,7.24-1.25,14.75-4.66,21.38l-0.35,0.68c-1.9,3.7-4.02,7.56-6.5,11.81c-0.63,1.09-1.25,2.27-1.91,3.52
			c-1.63,3.12-3.32,6.35-5.48,8.56C313.62,242.14,312.76,242.6,311.94,242.6z M303.95,196.68c-1.02,0-2.04,0.55-3.1,1.67
			c-4.76,5.05-1.22,15.68-0.46,17.77c1.73,4.75,4.44,9.09,7.05,13.29l0.88,1.41c0.36,0.58,0.79,1.2,1.24,1.84
			c0.78,1.11,1.58,2.27,2.14,3.4l0.28,0.56l0.64-0.52l0.06-0.22c0.08-0.54,0.77-1.47,1.28-2.15c0.27-0.37,0.52-0.71,0.69-0.98
			c0.94-1.56,1.95-3.16,2.98-4.8c4.73-7.52,10.08-16.04,11.86-24.45c0.85-4.01,0.07-7.61-2.12-9.9c-1.13-1.17-2.34-1.77-3.62-1.77
			c-1.58,0-3.14,0.95-4.38,2.67c-1.31,1.81-2.28,3.87-3.22,5.86c-0.51,1.08-1.04,2.2-1.61,3.24c-0.48,0.88-1.18,1.06-1.68,1.06
			c-0.09,0-0.18-0.01-0.27-0.02c-0.59-0.01-1.07-0.22-1.49-0.62c-0.72-0.69-1.4-1.75-2.13-2.88
			C307.52,198.97,306.04,196.68,303.95,196.68z"/>
		<path class="st1" d="M323.28,187.61c4.28,0,8.26,3.98,9.65,7.83c2.53,7.04-1.27,14.45-4.63,20.98l-0.35,0.68
			c-1.89,3.69-4.01,7.55-6.48,11.79c-0.64,1.1-1.26,2.29-1.92,3.54c-1.62,3.09-3.29,6.29-5.39,8.44c-0.79,0.81-1.54,1.22-2.21,1.22
			c-2.06,0-4.01-3.81-5.3-6.32c-0.42-0.81-0.81-1.58-1.18-2.18c-0.34-0.55-0.67-1.1-1.01-1.64c-4.14-6.71-8.41-13.64-9.49-21.57
			c-0.89-6.6,0.34-15.2,6.77-17.73c0.95-0.38,1.84-0.57,2.63-0.57c2.83,0,4.46,2.41,6.34,5.2c0.18,0.27,0.36,0.53,0.54,0.8
			l0.99,1.44l0.74-1.58c1.81-3.88,4.07-8.7,8.18-10.01C321.85,187.72,322.56,187.61,323.28,187.61 M312.84,204.19
			c-0.07,0-0.14,0-0.21-0.01l-0.06-0.01l-0.06,0c-0.4,0-0.76-0.16-1.09-0.48c-0.67-0.65-1.34-1.69-2.05-2.79
			c-1.5-2.32-3.05-4.72-5.42-4.72c-1.17,0-2.3,0.6-3.46,1.83c-3.84,4.08-2.81,12.12-0.56,18.28c1.75,4.8,4.47,9.16,7.09,13.38
			l0.88,1.41c0.37,0.59,0.8,1.21,1.25,1.86c0.77,1.1,1.56,2.24,2.1,3.34l0.55,1.12l0.97-0.78l0.06-0.05l0.01-0.01l0.27-0.22
			l0.06-0.38c0.06-0.42,0.76-1.36,1.18-1.93c0.27-0.37,0.53-0.72,0.71-1.02c0.94-1.55,1.93-3.12,2.98-4.79
			c4.75-7.55,10.13-16.11,11.93-24.61c0.88-4.17,0.06-7.94-2.25-10.35c-1.21-1.26-2.58-1.92-3.98-1.92c-1.75,0-3.45,1.02-4.79,2.88
			c-1.33,1.85-2.32,3.93-3.27,5.94c-0.51,1.07-1.03,2.18-1.59,3.22C313.79,203.92,313.37,204.19,312.84,204.19 M323.28,186.61
			c-0.8,0-1.62,0.12-2.43,0.38c-4.43,1.41-6.77,6.23-8.78,10.53c-2.12-3.09-4.03-6.43-7.71-6.43c-0.89,0-1.88,0.19-2.99,0.63
			c-7.13,2.8-8.29,12.24-7.4,18.79c1.19,8.79,6.1,16.21,10.64,23.61c1.59,2.6,3.93,8.98,7.33,8.98c0.9,0,1.87-0.44,2.92-1.52
			c3.09-3.16,5.24-8.37,7.46-12.18c2.27-3.89,4.45-7.83,6.51-11.84c3.44-6.71,7.81-14.75,5.04-22.46
			C332.33,190.83,328.04,186.61,323.28,186.61L323.28,186.61z M312.84,205.19c0.81,0,1.61-0.38,2.12-1.33
			c1.62-2.97,2.81-6.3,4.8-9.05c1.1-1.52,2.5-2.47,3.98-2.47c1.07,0,2.18,0.49,3.26,1.61c2.41,2.51,2.68,6.22,1.99,9.45
			c-2.14,10.13-9.48,20.34-14.78,29.09c-0.51,0.85-1.89,2.36-2.03,3.32c-0.01,0.01-0.02,0.02-0.03,0.03
			c-0.91-1.84-2.43-3.72-3.4-5.29c-2.91-4.71-5.98-9.39-7.88-14.61c-1.71-4.68-3.55-13.12,0.35-17.25c1.02-1.08,1.92-1.52,2.74-1.52
			c2.8,0,4.61,5.13,6.77,7.23c0.56,0.54,1.18,0.75,1.78,0.76C312.61,205.18,312.73,205.19,312.84,205.19L312.84,205.19z"/>
	</g>
</g>
</svg>
