<svg id="Layer_1" data-name="Layer 1" xmlns="http://www.w3.org/2000/svg" viewBox="0 0 636 91.49">
  <g>
    <g>
      <path d="M523.84,94C514.09,94,509,88.89,509,83.87a9.18,9.18,0,0,1,4.21-7.4c3.19-2.31,7.83-3.53,13.4-3.53,6.66,0,14.43,1.7,23.11,5l.32.12.29-.17c15.35-9,22.1-17.39,20.06-24.92-3.3-12.13-28.46-17.59-45.28-17.59a66.52,66.52,0,0,0-8.57.51l-.59.08,0,.59C515.27,56,498.16,66,484.4,74.15l-4.06,2.42c-7.24,4.76-29,14.07-46.49,14.07-13.17,0-20.12-5.34-20.68-15.87C415.7,58.53,436.43,48,453.39,42a236.11,236.11,0,0,1,54.05-11.57l1.51-.12-1.07-1.08c-8.71-8.8-22.77-13.46-40.65-13.46-23.62,0-53.42,8.23-79.71,22-27.28,14.3-46.84,32.31-53.66,49.42a2.25,2.25,0,0,1-2.11,1.54,3.64,3.64,0,0,1-2.85-1.67,3.25,3.25,0,0,1-.28-3.14c5.88-17,25.87-35.52,54.87-50.79,28.27-14.88,60.06-23.76,85-23.76,22.37,0,38.33,7,46.15,20.18l.21.35h5.42l4.29,0c18,0,38.13,1.26,48.88,16.35a17.3,17.3,0,0,1,2.76,13.54c-2.18,9.73-12.67,17.14-17.09,19.87l-1.35.84,1.53.43a62.81,62.81,0,0,0,16.18,1.8h0c19.82,0,43.69-6.06,52.33-19.57,4.71-7.36,4.73-16.23,0-26.35a2.92,2.92,0,0,1,0-3,3.57,3.57,0,0,1,2.93-1.7,2.52,2.52,0,0,1,2.32,1.51c5.65,12.88,5.52,24.05-.43,33.15C622.06,83.09,595.31,88.9,575.65,88.9h0c-9.65,0-18.37-1.32-24.54-3.71l-.31-.12-.29.17C540.62,91,531.4,94,523.84,94Zm3.32-14.82a25.22,25.22,0,0,0-7.61,1.12c-3.4,1.15-3.7,2.79-3.58,3.66.26,1.87,2.88,3.46,6,3.61q.73,0,1.47,0c5.62,0,11.46-1.49,17.87-4.55l1.6-.76-1.69-.54A45.82,45.82,0,0,0,527.16,79.16Zm-17.8-42.78c-21.92,1.79-80.77,11.91-89.72,37-.69,2.85-.32,5.15,1.07,6.91,2.08,2.65,6.45,4,13,4a89.54,89.54,0,0,0,23-3.69c11.2-3.62,22.54-9.64,35.68-19,5.28-3.74,17.56-13.63,17.73-24.52l0-.77Z" transform="translate(-2 -3.51)" style="fill: #f7c0ca"/>
      <path d="M468.52,10.06c15.42,0,35.83,3.44,45.55,19.84l.41.69h5.82l4.29,0c17.83,0,37.73,1.24,48.29,16a16.66,16.66,0,0,1,2.67,13c-2.12,9.47-12.44,16.74-16.78,19.42l-2.7,1.68,3.06.86a63.4,63.4,0,0,0,16.38,1.83c18.54,0,43.53-5.21,52.92-19.9,4.85-7.57,4.88-16.66.09-27v-.06a2.23,2.23,0,0,1,0-2.29,2.9,2.9,0,0,1,2.33-1.36,1.84,1.84,0,0,1,1.68,1.1c5.55,12.67,5.42,23.6-.37,32.48-10.54,16.13-37,21.85-56.52,21.85-9.56,0-18.19-1.3-24.29-3.66l-.62-.24-.58.33c-9.78,5.66-18.87,8.65-26.31,8.65-6.15,0-11.07-2.16-13.15-5.76a7.21,7.21,0,0,1,0-7.37c2.39-4.14,8.18-6.51,15.88-6.51,6.57,0,14.26,1.68,22.86,5l.63.24.58-.34c15.66-9.18,22.52-17.83,20.38-25.7-3.39-12.49-28.91-18.11-45.95-18.11a66.36,66.36,0,0,0-8.67.52l-1.17.15,0,1.19c-.64,18.95-16.86,28.52-31.17,37-1.39.82-2.75,1.62-4.07,2.42h0l0,0c-7.17,4.71-28.72,13.94-46.09,13.94-12.7,0-19.41-5.09-20-15.13,2.52-15.87,23-26.25,39.75-32.17A235.28,235.28,0,0,1,507.5,31.1l3-.23-2.12-2.15c-8.85-8.94-23.08-13.67-41.15-13.67-23.73,0-53.65,8.26-80,22.09-27.42,14.37-47.1,32.52-54,49.75A1.55,1.55,0,0,1,331.75,88a3,3,0,0,1-2.27-1.35,2.54,2.54,0,0,1-.22-2.48l0,0,0,0C335,67.52,355.4,48.7,383.82,33.74c28.17-14.83,59.84-23.68,84.7-23.68M433.67,85a89.59,89.59,0,0,0,23.25-3.72c11.27-3.64,22.66-9.7,35.87-19.07,5.36-3.8,17.85-13.86,18-25.08l0-1.55-1.54.13c-22,1.8-81.24,12-90.32,37.46l0,.07,0,.07c-.72,3-.31,5.5,1.22,7.43,2.22,2.83,6.77,4.26,13.51,4.26m89.75,3.31c5.71,0,11.66-1.51,18.16-4.62l3.19-1.52-3.36-1.07a46.3,46.3,0,0,0-14.25-2.61,26,26,0,0,0-7.85,1.16c-3.87,1.31-4.19,3.33-4,4.42.35,2.54,3.68,4.06,6.63,4.21.49,0,1,0,1.51,0M468.52,8.66c-52.77,0-128,38.59-140.55,75a4.24,4.24,0,0,0,3.78,5.79,2.93,2.93,0,0,0,2.76-2c14.43-36.18,83.55-71,132.72-71,16.64,0,31,4,40.16,13.26-22.76,1.79-90.22,14.16-94.92,45,.62,12.42,9.8,16.61,21.38,16.61,16.85,0,38.78-8.86,46.86-14.17,14.67-8.86,35.18-18.88,35.91-40.53a65.63,65.63,0,0,1,8.48-.51c28.22,0,70.31,14.56,24.87,41.2-9.44-3.64-17.21-5.09-23.37-5.09-24.22,0-23.66,22.44-2.76,22.44,6.87,0,15.92-2.42,27-8.83,6.25,2.42,15.11,3.75,24.79,3.75,33.15,0,76-15.58,58.15-56.34a3.23,3.23,0,0,0-2.94-1.89c-2.52,0-5.14,2.73-3.6,5.69C642.69,70.47,602.55,82,575.51,82a62.18,62.18,0,0,1-16-1.77C570.41,73.47,583.6,60.55,574,45.8,563,30.24,542.24,29.16,524.59,29.16c-2.86,0-5.63,0-8.27,0h-1c-8.61-14.52-25.94-20.53-46.76-20.53ZM433.67,83.57c-8.35,0-15.22-2.24-13.37-10,8.83-24.74,67.66-34.78,89.11-36.53-.15,9.53-10,18.7-17.43,24-10.88,7.71-22.73,14.75-35.49,18.87a87.74,87.74,0,0,1-22.82,3.66Zm89.75,3.31-1.45,0c-4.49-.22-8.19-3.88-2.21-5.9a24.21,24.21,0,0,1,7.4-1.09A45.8,45.8,0,0,1,541,82.4a41,41,0,0,1-17.56,4.48Z" transform="translate(-2 -3.51)" style="fill: #020202"/>
    </g>
    <g>
      <path d="M116.73,94.3c-7.58,0-16.89-3.14-26.94-9.08l-.29-.17-.32.12C83.13,87.44,74.5,88.7,64.89,88.7c-20,0-47.23-5.82-57.81-22.2-5.83-9-5.84-20.1,0-32.95a2.52,2.52,0,0,1,2.31-1.49,3.57,3.57,0,0,1,2.92,1.71,2.89,2.89,0,0,1,.05,3C7.91,46.8,8.14,55.61,13,63c9,13.75,33,19.91,52.72,19.9a64.93,64.93,0,0,0,15.08-1.54l1.77-.43-1.61-.86c-11.06-6-17.5-15-17.21-24.24C64,47.34,69.85,40,80.22,35.29c8.82-3.83,20-5.69,34-5.69,3.2,0,6.63.09,10.49.28l.4,0,.21-.34c8.94-13.6,24-20.5,44.71-20.5,25.11,0,52.82,9.83,71.49,17.23,23.8,10.1,57,27.08,70,57.62a3.24,3.24,0,0,1-.28,3.14,3.64,3.64,0,0,1-2.85,1.67h0a2.25,2.25,0,0,1-2.12-1.56c-7.37-17.3-26.87-35.35-53.5-49.53C226.63,23.69,198,15.69,174.24,15.69c-17.88,0-32.21,4.68-41.46,13.53l-1.12,1.06,1.54.14c36,3.27,63.93,12.75,85.51,29,7.6,9.28,10.15,16.75,7.57,22.2-2.66,5.62-11.24,9-22.95,9-7.87,0-15.85-1.52-21.35-4-19.56-8-55.85-22.69-57.9-49.95l0-.62-.62,0c-2.65-.11-6.17-.23-9.85-.23-8.71,0-21.52.59-32.08,5.68-7.89,4.53-11.89,9.45-11.91,14.64,0,8.85,11.06,16.53,20.75,22.23l.3.17.32-.12c8.48-3.38,16.11-5.09,22.66-5.09,5.52,0,10.12,1.25,13.31,3.59a9.44,9.44,0,0,1,4.21,7.52C131.12,89.14,126.61,94.3,116.73,94.3Zm-6.19-15A48.67,48.67,0,0,0,99,81.81l-1.5.49,1.37.78a32.89,32.89,0,0,0,16,4.44c5.47,0,9.61-1.72,9.62-4,0-2.59-5-4.15-13.87-4.28h-.06Zm93.24,4.85c1.18.1,2.32.15,3.39.15,9.93,0,12.52-4.2,13.18-6.7,1.56-5.92-4-14-13.28-19.26a195,195,0,0,0-76-21.87l-.83-.07.08.83c2.53,26.62,53.34,46.92,73.31,46.92Z" transform="translate(-2 -3.51)" style="fill: #f7c0ca"/>
      <path d="M170.07,9.76c25,0,52.62,9.8,71.2,17.17C265,37,298,53.88,310.92,84.19a2.52,2.52,0,0,1-.22,2.48A2.94,2.94,0,0,1,308.44,88,1.57,1.57,0,0,1,307,86.89c-7.43-17.45-27-35.62-53.81-49.88-26.28-14-55-22-78.91-22-18.06,0-32.57,4.74-42,13.72l-2.22,2.13,3.06.28c35.79,3.25,63.62,12.67,85.09,28.8,7.27,8.91,9.84,16.31,7.43,21.4-2.54,5.37-10.89,8.58-22.32,8.58-7.65,0-15.72-1.53-21.06-4l-.06,0,0,0c-19.35-7.86-55.38-22.5-57.4-49.32l-.09-1.24-1.25-.05c-2.66-.11-6.19-.23-9.88-.23-8.78,0-21.69.6-32.38,5.75l-.05,0,0,0C73,45.47,68.89,50.59,68.87,56.05c-.05,9.21,11.25,17,21.1,22.83l.59.35L91.2,79c8.4-3.34,15.94-5,22.4-5,11.55,0,16.82,5.4,16.82,10.41,0,4.45-4.29,9.25-13.69,9.25-7.45,0-16.64-3.11-26.59-9l-.57-.34-.63.23C83,86.76,74.42,88,64.89,88,45,88,18.1,82.27,7.67,66.12,2,57.32,2,46.48,7.66,33.87a1.83,1.83,0,0,1,1.68-1.1,2.88,2.88,0,0,1,2.32,1.36,2.22,2.22,0,0,1,0,2.29l0,0,0,0c-4.48,10.25-4.24,19.29.72,26.87,9.14,14,33.36,20.23,53.31,20.23A65.31,65.31,0,0,0,80.93,82l3.53-.87-3.2-1.72C70.43,73.62,64.13,64.8,64.41,55.84c.26-8.2,6-15.27,16.08-19.91,8.74-3.79,19.78-5.63,33.77-5.63,3.19,0,6.6.09,10.45.28l.8,0L126,30c8.8-13.4,23.64-20.19,44.12-20.19m33.59,75h.09c1.19.1,2.34.15,3.42.15,10.4,0,13.15-4.52,13.86-7.22,1.64-6.23-4.09-14.66-13.61-20.05l0,0h0a195.74,195.74,0,0,0-76.22-21.93l-1.66-.13.16,1.66c2.57,27,53.86,47.55,74,47.55m-88.81,3.42c6.06,0,10.3-1.93,10.32-4.68,0-3.12-5-4.85-14.56-5h-.12a49.67,49.67,0,0,0-11.72,2.59l-3,1,2.74,1.56a33.58,33.58,0,0,0,16.34,4.53M170.07,8.35c-18.33,0-35.09,5.3-45.29,20.83-3.42-.17-7-.28-10.52-.28-11.71,0-23.87,1.21-34.33,5.75-24,11-21.25,34.25.66,46a64.32,64.32,0,0,1-14.91,1.52c-27.29,0-67.19-12.1-52.75-45.13,1.55-3-1.08-5.7-3.59-5.7a3.22,3.22,0,0,0-2.94,1.9c-18.49,41,25.24,56.14,58.49,56.14,9.66,0,18.43-1.28,24.54-3.58C100.72,92.5,109.87,95,116.73,95c20.56,0,20.66-22.46-3.13-22.46-6.06,0-13.69,1.46-22.92,5.13C76,69.06,58.06,55.67,81.78,42c9.49-4.57,20.91-5.61,31.78-5.61,3.35,0,6.65.1,9.82.23,2.09,27.7,38.67,42.55,58.3,50.52,5.54,2.56,13.71,4.12,21.65,4.12,18.39,0,35.55-8.4,15.86-32.39-25.24-19-56.33-26.5-85.93-29.19,9.74-9.32,24.32-13.33,41-13.33,48.94,0,115.91,34.6,131.44,71.05a2.92,2.92,0,0,0,2.76,2,4.22,4.22,0,0,0,3.77-5.78c-12.39-29-42.57-46.19-70.4-58-18.06-7.17-46.39-17.29-71.74-17.29ZM203.66,83.4c-19.76,0-70.16-20.48-72.61-46.28A195.21,195.21,0,0,1,206.73,58.9c15.22,8.61,19.61,24.65.44,24.65q-1.57,0-3.36-.15Zm-88.81,3.42a31.87,31.87,0,0,1-15.64-4.35A47.62,47.62,0,0,1,110.59,80c18.83.29,14.91,6.87,4.26,6.87Z" transform="translate(-2 -3.51)" style="fill: #020202"/>
    </g>
    <g>
      <path d="M321.1,81.55c-3.32,0-6.07-5.33-8.07-9.22-.59-1.13-1.13-2.19-1.63-3L310,67c-5.85-9.44-11.9-19.2-13.43-30.43-1.58-7.54.29-15.94,4.75-21.45,2.56-3.15,5.64-4.88,8.66-4.88,4,0,7.71,3,10.7,8.59l.77,1.44.52-1.54c2.94-8.84,9.12-14.55,15.75-14.55,5.69,0,10.63,4.08,13.56,11.21,6.47,14.2-17.16,50-26.06,63.45l-.54.81a5.25,5.25,0,0,1-3.56,1.87ZM309.94,17.31c-1.42,0-2.86.78-4.42,2.39l-.06.06,0,.07c-8.84,15,1.7,31.24,10.16,44.29,1.91,2.95,3.72,5.74,5.2,8.34l.41.72.64-.52.24-.24.05-.24a10,10,0,0,1,1.79-3c.38-.5.73-1,1-1.37,1.64-3.15,4-6.83,6.54-10.72,9-13.88,20.18-31.15,11.4-43.92l-.05-.07-.06-.06c-2-1.76-3.77-2.61-5.48-2.61-4.08,0-6.45,4.9-8.75,9.65-1.92,4-3.91,8.07-6.6,8.45-2.14-.31-3.85-2.94-5.5-5.49C314.55,20.22,312.66,17.31,309.94,17.31Z" transform="translate(-2 -3.51)" style="fill: #f7c0ca"/>
      <path d="M337.7,4.91c5.39,0,10.09,3.93,12.91,10.78v.05c6.3,13.81-18,50.64-26,62.74l-.5.75a4.53,4.53,0,0,1-3,1.62c-2.89,0-5.63-5.32-7.45-8.84-.59-1.14-1.14-2.22-1.66-3.05l-1.42-2.3c-5.81-9.37-11.81-19.07-13.32-30.15v-.1c-1.54-7.3.28-15.47,4.62-20.81,2.42-3,5.3-4.63,8.11-4.63,3.73,0,7.22,2.84,10.09,8.22l1.53,2.88,1-3.09c2.84-8.55,8.77-14.07,15.09-14.07m-15.82,22.9c-1.78-.34-3.37-2.79-4.91-5.16-1.93-3-3.93-6-7-6-1.62,0-3.23.85-4.92,2.6l-.12.12-.08.14c-9.06,15.38,1.6,31.82,10.17,45,1.91,2.94,3.71,5.72,5.18,8.31l.81,1.42,1.29-1,.08-.08.39-.31.08-.54a10.23,10.23,0,0,1,1.66-2.69c.38-.52.74-1,1-1.43l0,0,0,0c1.6-3.08,4-6.75,6.48-10.62,9.1-14.05,20.43-31.54,11.39-44.7l-.1-.14-.12-.11c-2.12-1.88-4.06-2.79-5.95-2.79-4.51,0-7,5.1-9.38,10-1.82,3.75-3.69,7.63-6,8M337.7,3.51c-6.53,0-13.17,5.24-16.42,15-3.39-6.36-7.44-9-11.32-9-8.91,0-16.92,13.71-14.1,27.13,1.67,12.29,8.57,22.65,14.94,33,2.24,3.63,5.52,12.55,10.3,12.55a5.87,5.87,0,0,0,4.11-2.13c8.33-12.62,33.47-50.12,26.7-65-3.26-7.9-8.69-11.64-14.21-11.64ZM321.88,29.23c6.45-.74,8.32-18.11,15.35-18.11,1.43,0,3.08.71,5,2.44,11,16-10.73,39.92-18,53.88-.72,1.18-2.65,3.29-2.85,4.64l0,0c-8.09-14.21-25.93-34-15.36-51.93,1.49-1.54,2.77-2.17,3.91-2.17,4.68,0,6.92,10.64,11.94,11.22Z" transform="translate(-2 -3.51)" style="fill: #020202"/>
    </g>
  </g>
</svg>
