<?xml version="1.0" encoding="utf-8"?>
<!-- Generator: Adobe Illustrator 25.2.1, SVG Export Plug-In . SVG Version: 6.00 Build 0)  -->
<svg version="1.1" id="Layer_1" xmlns="http://www.w3.org/2000/svg" xmlns:xlink="http://www.w3.org/1999/xlink" x="0px" y="0px"
	 viewBox="0 0 800 100" style="enable-background:new 0 0 800 100;" xml:space="preserve">
<style type="text/css">
	.st0{fill:#E4C0CA;stroke:#010202;stroke-width:0.8803;stroke-miterlimit:10;}
</style>
<sodipodi:namedview  bordercolor="#666666" borderopacity="1.0" fit-margin-bottom="10" fit-margin-left="10" fit-margin-right="10" fit-margin-top="10" id="base" pagecolor="#ffffff" showgrid="false">
	</sodipodi:namedview>
<g id="layer2" transform="translate(-131.93 -241.24)">
	<path id="path2999" class="st0" d="M816.71,317.74c0.97,33-28.59,17.6-38.61,14.87c-15.94-2.97-152.31-8.41-267.85-8.92
		c-122.36-0.54-212.98,7.93-237.19,12.89c-17.51,5.66-32.28-12.63-34.32-35.69c2.15-11.9,10.63-32.72,27.89-32.72
		c17.16,0,67.11,12.89,100.82,16.85c15.39,1.81,44.61,3.69,57,2.97c17.16-0.99,24.52-4.96,35.55-2.97
		c11.03,1.98,18.39,6.94,24.52,7.93c6.13,0.99,22.97-10.67,37.08-11.9c11.67-1.02,20.84,14.87,33.1,12.39
		c5.02-1.01,22.98-13.38,30.95-15.37c7.97-1.98,27.58,12.89,35.55,13.88c7.97,0.99,23.9-13.38,34.32-14.38
		c10.42-0.99,19.61,13.38,33.71,16.36c14.1,2.97,57.61-23.79,63.13-28.75c5.52-4.96,15.94-19.83,23.29-20.82
		c7.35-0.99,13.48,3.47,12.87,11.4c-0.61,7.93-3.68,17.35-10.42,20.32c-10.48,4.62-15.32,6.94-26.97,7.93
		c-6.76,0.58-39.23,23.79-47.81,24.79c-8.58,0.99-15.94,1.98-26.97-2.97c-11.03-4.96-12.26-9.91-19-10.91
		c-6.74-0.99-26.36,11.9-33.1,11.9c-6.74,0-29.42-10.91-36.16-9.91c-6.74,0.99-27.27,16.36-34.02,13.38
		c-6.74-2.97-25.44-12.39-33.4-11.4c-7.97,0.99-25.13,11.9-34.32,10.91c-9.19-0.99-21.45-9.91-30.65-10.91
		c-9.19-0.99-26.97,9.91-35.55,6.94c-8.58-2.97-74.16-8.92-100.52-12.89c-26.36-3.97-45.84-9.75-56.39-3.97
		c-9.55,5.23-12.56,13.38-12.87,21.81c-0.32,8.85,7.61,14.14,26.97,8.92c12.87-3.47,55.79-5.32,108.18-9.91
		c41.02-3.6,118.56,1.04,154.76,1.98c38,0.99,105.96,2.48,143.43,1.98c37.39-0.5,67.42-0.99,85.81-1.98
		c18.39-0.99,6.44-4.96,31.87-5.95C808.77,305.56,812.73,311.3,816.71,317.74L816.71,317.74z"/>
</g>
</svg>
